<?xml version="1.0" encoding="utf-8"?>
<!-- Generator: Adobe Illustrator 22.0.1, SVG Export Plug-In . SVG Version: 6.00 Build 0)  -->
<svg version="1.1" id="Layer_1" xmlns="http://www.w3.org/2000/svg" xmlns:xlink="http://www.w3.org/1999/xlink" x="0px" y="0px"
	 viewBox="0 0 450 450" style="enable-background:new 0 0 450 450;" xml:space="preserve">
<style type="text/css">
	.st0{fill:#F0CCBA;}
	.st1{fill:#637887;}
	.st2{fill:#FFFFFF;}
	.st3{fill:#141414;}
	.st4{fill:#DB5C26;}
</style>
<g>
	<g>
		<path class="st0" d="M401.2,331.8l-36.9-24.6c-1.9-1.2-4.3-1.3-6.2-0.1L320.8,330l-46.3-23.2c-1.6-0.8-3.5-0.8-5.2,0l-46.6,21.4
			L176,306.8c-1.6-0.8-3.5-0.8-5.2,0L124.5,330l-37.3-22.9c-1.9-1.2-4.3-1.1-6.2,0.1l-36.9,24.6c-2.6,1.8-3.4,5.4-1.6,8
			c1.8,2.7,5.3,3.4,8,1.6l33.8-22.6l36.8,22.7c1.7,1,3.8,1.1,5.6,0.2l46.6-23.3l46.6,23.3c1.6,0.8,3.6,0.8,5.2,0l46.6-23.3
			l46.6,23.3c1.8,0.9,3.9,0.8,5.6-0.2l36.8-22.7l33.8,22.6c2.6,1.8,6.2,1.1,8-1.6C404.5,337.1,403.8,333.5,401.2,331.8"/>
		<path class="st1" d="M227.4,299.6l-0.2-0.1C227.2,299.5,227.3,299.5,227.4,299.6c0.1-0.1,0.1-0.1,0.2-0.1L227.4,299.6z
			 M405.9,301.2l-36.9-24.6c-1.9-1.2-4.3-1.3-6.2-0.1l-37.3,22.9l-46.3-23.2c-1.6-0.8-3.5-0.8-5.2,0l-42.1,21.1
			c0-0.1,0.1-0.1,0.1-0.2c0,0-9.4-0.2-9.2,0c0,0.1,0.1,0.1,0.1,0.2l-42.1-21.1c-1.6-0.8-3.5-0.8-5.2,0l-46.3,23.2L92,276.5
			c-1.9-1.2-4.3-1.1-6.2,0.1l-36.9,24.6c-2.6,1.8-3.4,5.4-1.6,8c1.8,2.7,5.3,3.4,8,1.6l33.8-22.6l36.8,22.7c1.7,1,3.8,1.1,5.6,0.2
			l46.6-23.3l46.6,23.3c1.6,0.8,3.6,0.8,5.2,0l46.6-23.3l46.6,23.3c1.8,0.9,3.9,0.8,5.6-0.2l36.8-22.7l33.8,22.6
			c2.6,1.8,6.2,1.1,8-1.6C409.2,306.6,408.5,303,405.9,301.2"/>
		<path class="st2" d="M333.1,158.9c0-58.4-47.4-105.8-105.8-105.8c-58.4,0-105.8,47.4-105.8,105.8c0,101.1,105.8,235.7,105.8,235.7
			S333.1,250.6,333.1,158.9"/>
		<path class="st3" d="M227.3,56.6c-56.4,0-102.3,45.9-102.3,102.3c0,89.5,85.3,207.3,102.2,229.7
			c16.6-23.4,102.4-148.5,102.4-229.7C329.6,102.5,283.7,56.6,227.3,56.6 M227.4,400.4l-2.9-3.6C220.2,391.2,118,260.1,118,158.9
			c0-60.3,49-109.3,109.3-109.3c60.3,0,109.3,49.1,109.3,109.3c0,91.8-102.1,231.8-106.5,237.7L227.4,400.4z"/>
		<path class="st4" d="M300.2,151.9c0,42.9-34.7,77.6-77.6,77.6c-42.8,0-77.6-34.7-77.6-77.6s34.7-77.6,77.6-77.6
			C265.5,74.3,300.2,109,300.2,151.9"/>
		<path class="st3" d="M225,83.7c-41.5,0-75.2,33.8-75.2,75.2c0,41.5,33.7,75.2,75.2,75.2s75.2-33.8,75.2-75.2
			C300.2,117.4,266.5,83.7,225,83.7 M225,238.9c-44.1,0-79.9-35.9-79.9-80s35.9-80,79.9-80s79.9,35.9,79.9,80S269.1,238.9,225,238.9
			"/>
		<path class="st2" d="M261.8,144.6L228,113.7c-0.1-0.1-0.2-0.1-0.2,0L194,144.6c-0.5,0.4-0.8,1.1-0.8,1.8l0.2,47.9
			c0,1.3,1.1,2.4,2.4,2.4h22.1V169c0-0.6,0.5-1.1,1.1-1.1h18.4c0.6,0,1.1,0.5,1.1,1.1v27.6h21.9c1.3,0,2.4-1.1,2.4-2.4v-47.9
			C262.6,145.7,262.3,145.1,261.8,144.6"/>
	</g>
</g>
</svg>
