<?xml version="1.0" encoding="utf-8"?>
<!-- Generator: Adobe Illustrator 22.0.1, SVG Export Plug-In . SVG Version: 6.00 Build 0)  -->
<svg version="1.1" id="Layer_1" xmlns="http://www.w3.org/2000/svg" xmlns:xlink="http://www.w3.org/1999/xlink" x="0px" y="0px"
	 viewBox="0 0 450 450" style="enable-background:new 0 0 450 450;" xml:space="preserve">
<style type="text/css">
	.st0{clip-path:url(#SVGID_2_);fill:#F0CCBA;}
	.st1{fill:#637887;}
	.st2{fill:#141414;}
	.st3{clip-path:url(#SVGID_4_);fill:#FFFFFF;}
	.st4{clip-path:url(#SVGID_4_);fill:#141414;}
	.st5{clip-path:url(#SVGID_4_);fill:#241F21;}
	.st6{fill:#211F1F;}
	.st7{clip-path:url(#SVGID_6_);fill:#C44F1A;}
	.st8{clip-path:url(#SVGID_6_);fill:#241F21;}
	.st9{clip-path:url(#SVGID_6_);}
</style>
<g>
	<g>
		<defs>
			<rect id="SVGID_1_" x="44.3" y="66.6" width="361.4" height="316.8"/>
		</defs>
		<clipPath id="SVGID_2_">
			<use xlink:href="#SVGID_1_"  style="overflow:visible;"/>
		</clipPath>
		<path class="st0" d="M390,344.2c0-2.9-0.9-5.3-2.7-7.1c-1.8-1.8-5.3-3.6-10.4-5.4v23.7C385.7,354.2,390,350.4,390,344.2
			 M357,306.4c0,3.1,0.9,5.6,2.7,7.4c1.8,1.9,5,3.6,9.4,5.3v-23.6c-4,0.7-7,1.9-9.1,3.8C358,301.2,357,303.6,357,306.4 M400.3,343.4
			c0,5.5-2.1,10.1-6.2,13.7c-4.1,3.6-9.9,5.9-17.2,6.8V378h-7.8v-13.6c-4.5,0-8.9-0.4-13.1-1.1c-4.2-0.7-7.7-1.7-10.4-3v-9.5
			c3.3,1.5,7.2,2.7,11.6,3.7c4.4,1,8.4,1.4,11.9,1.4v-26.8c-8.3-2.6-14.1-5.7-17.4-9.2c-3.3-3.5-5-8-5-13.5c0-5.3,2-9.7,6.1-13.1
			c4.1-3.4,9.5-5.5,16.2-6.2v-11.1h7.8v11c7.4,0.2,14.6,1.7,21.5,4.5l-3.1,8c-6-2.4-12.1-3.8-18.3-4.3v26.4c6.3,2,11.1,4,14.2,5.9
			c3.1,1.9,5.5,4.1,7,6.6C399.6,336.8,400.3,339.8,400.3,343.4"/>
		<path class="st0" d="M88.7,134.7c0-2.9-0.9-5.3-2.7-7.1c-1.8-1.8-5.3-3.6-10.4-5.4v23.7C84.4,144.7,88.7,140.9,88.7,134.7
			 M55.7,96.9c0,3.1,0.9,5.6,2.7,7.4c1.8,1.9,5,3.6,9.4,5.3V86c-4,0.7-7,1.9-9.1,3.8C56.7,91.7,55.7,94.1,55.7,96.9 M99,133.9
			c0,5.5-2.1,10.1-6.2,13.7c-4.1,3.6-9.9,5.9-17.2,6.8v14.1h-7.8v-13.6c-4.5,0-8.9-0.4-13.1-1.1c-4.2-0.7-7.7-1.7-10.4-3v-9.5
			c3.3,1.5,7.2,2.7,11.6,3.7c4.4,1,8.4,1.4,11.9,1.4v-26.8c-8.3-2.6-14.1-5.7-17.4-9.2c-3.3-3.5-5-8-5-13.5c0-5.3,2-9.7,6.1-13.1
			c4.1-3.4,9.5-5.5,16.2-6.2V66.6h7.8v11c7.4,0.2,14.6,1.7,21.5,4.5l-3.1,8c-6-2.4-12.1-3.8-18.3-4.3v26.4c6.3,2,11.1,4,14.2,5.9
			c3.1,1.9,5.5,4.1,7,6.6C98.3,127.3,99,130.3,99,133.9"/>
		<path class="st0" d="M187.2,137.3l-40.1-29.4c-1.7-1.2-4,0.2-3.7,2.3l7.9,53"/>
	</g>
	<polygon class="st1" points="211.6,332.3 171.6,332.3 163,277.6 220.2,277.6 	"/>
	<polygon class="st1" points="297.5,332.3 257.5,332.3 248.9,277.6 306.1,277.6 	"/>
	<path class="st2" d="M179.7,335.2h35.2l7.7-49H172L179.7,335.2z M219.8,341h-45l-9.5-60.6h64L219.8,341z"/>
	<path class="st2" d="M265.6,335.2h35.2l7.7-49h-50.6L265.6,335.2z M305.7,341h-45l-9.5-60.6h64L305.7,341z"/>
	<g>
		<defs>
			<rect id="SVGID_3_" x="44.3" y="66.6" width="361.4" height="316.8"/>
		</defs>
		<clipPath id="SVGID_4_">
			<use xlink:href="#SVGID_3_"  style="overflow:visible;"/>
		</clipPath>
		<path class="st3" d="M241.9,120.8c-9.9,0-19.5,1.1-28.6,3.1l2.9-2.1L175.5,92c-1.7-1.3-4.1,0.2-3.8,2.3l6.4,43
			c-22.9,13.1-39.9,33.2-47.1,56.6c-0.4-0.1-0.8-0.1-1.2-0.1h-25.3c-3.4,0-6.2,2.8-6.2,6.2v34.3c0,3.4,2.8,6.2,6.2,6.2H130
			c0.1,0,0.2,0,0.4,0c11.6,43.5,57.1,76,111.5,76c63.2,0,114.4-43.8,114.4-97.9C356.3,164.6,305,120.8,241.9,120.8"/>
		<path class="st4" d="M241.9,320c-26.8,0-53-7.9-73.8-22.3c-19.8-13.7-34-32.7-40.4-53.7h-23.1c-5.3,0-9.7-4.4-9.7-9.7V200
			c0-5.4,4.3-9.7,9.7-9.7h24c7.5-22.2,23.6-41.5,45.8-54.8l-6.1-40.6c-0.4-2.4,0.7-4.7,2.8-5.9c2-1.2,4.6-1.1,6.5,0.3l40.9,30
			c7.6-1.3,15.5-2,23.3-2c65,0,117.9,45.5,117.9,101.4C359.8,274.5,306.9,320,241.9,320z M133,236.8l0.7,2.8
			c11.5,43.2,56,73.4,108.1,73.4c61.1,0,110.9-42.3,110.9-94.4s-49.7-94.4-110.9-94.4c-9.4,0-18.8,1-27.9,3l-16.5,3.6l12.7-9.1
			l-34.5-25.3l6.4,42.7l-2.1,1.2c-22.5,12.9-38.7,32.3-45.4,54.6l-0.9,3l-3.1-0.6c-0.2,0-0.4-0.1-0.5-0.1h-25.3
			c-1.5,0-2.7,1.2-2.7,2.7v34.3c0,1.5,1.2,2.7,2.7,2.7h25.2c0.1,0,0.2,0,0.3,0L133,236.8z"/>
		<path class="st3" d="M197.7,137.4l-42.8-30.9c-1.8-1.3-4.3,0.2-4,2.4l8.5,55.7"/>
		<path class="st4" d="M159.4,168.1c-1.7,0-3.2-1.2-3.5-3l-8.5-55.7c-0.4-2.4,0.7-4.8,2.8-6c2.1-1.3,4.7-1.2,6.7,0.3l42.8,30.9
			c1.6,1.1,1.9,3.3,0.8,4.9c-1.1,1.6-3.3,1.9-4.9,0.8l-40.9-29.6l8.1,53.4c0.3,1.9-1,3.7-2.9,4C159.7,168.1,159.6,168.1,159.4,168.1
			z"/>
		<path class="st5" d="M151.5,201.1c0,2.4-1.9,4.3-4.3,4.3c-2.4,0-4.3-1.9-4.3-4.3c0-2.4,1.9-4.3,4.3-4.3
			C149.6,196.8,151.5,198.8,151.5,201.1"/>
	</g>
	<path class="st6" d="M110.5,227.9c-1.9,0-3.5-1.6-3.5-3.5v-18c0-1.9,1.6-3.5,3.5-3.5s3.5,1.6,3.5,3.5v18
		C114,226.3,112.4,227.9,110.5,227.9z"/>
	<g>
		<defs>
			<rect id="SVGID_5_" x="44.3" y="66.6" width="361.4" height="316.8"/>
		</defs>
		<clipPath id="SVGID_6_">
			<use xlink:href="#SVGID_5_"  style="overflow:visible;"/>
		</clipPath>
		<path class="st7" d="M282.3,211l-41.2-37.9c-0.1-0.1-0.2-0.1-0.3,0L199.6,211c-0.6,0.6-0.9,1.3-0.9,2.2l0.2,58.8
			c0,1.6,1.3,2.9,2.9,2.9h26.9v-33.9c0-0.7,0.6-1.3,1.3-1.3h22.4c0.7,0,1.3,0.6,1.3,1.3v33.9h26.6c1.6,0,2.9-1.3,2.9-2.9v-58.8
			C283.2,212.3,282.9,211.5,282.3,211"/>
		<path class="st8" d="M370.9,158.4c-1.5,0-3,0.4-4.2,1.1c-4.1,2.4-6.4,8.5-1.9,16.4c2.7,4.8,5.4,8.6,8,11.6
			c5-3.4,9.3-7.3,10.6-11.8c0.9-3,0.4-6.2-1.6-9.6C378.6,160.6,374.5,158.4,370.9,158.4 M354.5,203.9c-1,0-2-0.5-2.5-1.4
			c-0.8-1.4-0.3-3.1,1.1-3.9c1.9-1.1,4.1-2.2,6.4-3.4c2.6-1.4,5.5-2.9,8.4-4.5c-2.7-3.1-5.3-7-8-11.8c-6.2-10.8-2.6-20.4,4-24.3
			c6.7-3.9,16.7-2.1,22.8,8.7c2.7,4.8,3.4,9.5,2.1,14.1c-1.7,5.7-6.2,10.3-11.7,14.2c1.1,0.8,2.2,1.5,3.3,2
			c5.5,2.6,11.5,1.8,18.9-2.4c1.4-0.8,3.1-0.3,3.9,1.1c0.8,1.4,0.3,3.1-1.1,3.9c-9,5.2-17,6.1-24.2,2.7c-2-1-4-2.3-5.9-3.9
			c-3.3,2-6.7,3.8-9.9,5.4c-2.3,1.2-4.4,2.3-6.2,3.3C355.5,203.8,355,203.9,354.5,203.9"/>
		<path class="st9" d="M89,139.1c0-2.9-0.9-5.3-2.7-7.1c-1.8-1.8-5.3-3.6-10.4-5.4v23.7C84.7,149.1,89,145.4,89,139.1 M56,101.3
			c0,3.1,0.9,5.6,2.7,7.4c1.8,1.9,5,3.6,9.4,5.3V90.5c-4,0.7-7,1.9-9.1,3.8C57,96.2,56,98.5,56,101.3 M99.3,138.3
			c0,5.5-2.1,10.1-6.2,13.7c-4.1,3.6-9.9,5.9-17.2,6.8v14.1h-7.8v-13.6c-4.5,0-8.9-0.4-13.1-1.1c-4.2-0.7-7.7-1.7-10.4-3v-9.5
			c3.3,1.5,7.2,2.7,11.6,3.7c4.4,1,8.4,1.4,11.9,1.4v-26.8c-8.3-2.6-14.1-5.7-17.4-9.2c-3.3-3.5-5-8-5-13.5c0-5.3,2-9.7,6.1-13.1
			c4.1-3.4,9.5-5.5,16.2-6.2V71h7.8v11c7.4,0.2,14.6,1.7,21.5,4.5l-3.1,8c-6-2.4-12.1-3.8-18.3-4.3v26.4c6.3,2,11.1,4,14.2,5.9
			c3.1,1.9,5.5,4.1,7,6.6C98.6,131.7,99.3,134.7,99.3,138.3"/>
		<path class="st9" d="M395.4,349.6c0-2.9-0.9-5.3-2.7-7.1c-1.8-1.8-5.3-3.6-10.4-5.4v23.7C391,359.6,395.4,355.9,395.4,349.6
			 M362.4,311.8c0,3.1,0.9,5.6,2.7,7.4c1.8,1.9,5,3.6,9.4,5.3V301c-4,0.7-7,1.9-9.1,3.8C363.4,306.7,362.4,309,362.4,311.8
			 M405.7,348.8c0,5.5-2.1,10.1-6.2,13.7c-4.1,3.6-9.9,5.9-17.2,6.8v14.1h-7.8v-13.6c-4.5,0-8.9-0.4-13.1-1.1
			c-4.2-0.7-7.7-1.7-10.4-3v-9.5c3.3,1.5,7.2,2.7,11.6,3.7c4.4,1,8.4,1.4,11.9,1.4v-26.8c-8.3-2.6-14.1-5.7-17.4-9.2
			c-3.3-3.5-5-8-5-13.5c0-5.3,2-9.7,6.1-13.1c4.1-3.4,9.5-5.5,16.2-6.2v-11.1h7.8v11c7.4,0.2,14.6,1.7,21.5,4.5l-3.1,8
			c-6-2.4-12.1-3.8-18.3-4.3v26.4c6.3,2,11.1,4,14.2,5.9c3.1,1.9,5.5,4.1,7,6.6C405,342.2,405.7,345.2,405.7,348.8"/>
	</g>
</g>
</svg>
