<?xml version="1.0" encoding="utf-8"?>
<!-- Generator: Adobe Illustrator 22.0.1, SVG Export Plug-In . SVG Version: 6.00 Build 0)  -->
<svg version="1.1" id="Layer_1" xmlns="http://www.w3.org/2000/svg" xmlns:xlink="http://www.w3.org/1999/xlink" x="0px" y="0px"
	 viewBox="0 0 450 450" style="enable-background:new 0 0 450 450;" xml:space="preserve">
<style type="text/css">
	.st0{fill:#BABABA;}
	.st1{fill:#637887;}
	.st2{fill:#141414;}
	.st3{fill:#FFFFFF;}
	.st4{fill:#C44F1A;}
	.st5{fill:#ED6324;}
	.st6{fill:#241F21;}
	.st7{fill:#F0CCBA;}
</style>
<g>
	<path class="st0" d="M387.2,337.9l-28.6-38.7c-1.4-1.9-3.7-3-6.1-3h3.3V99.7c0-10.1-8.4-18.2-18.9-18.2H89.2
		c-10.4,0-18.9,8.2-18.9,18.2v196.5h3.3c-2.4,0-4.7,1.1-6.1,3L39,337.9c-3.5,4.8,0,11.4,6.1,11.4h336
		C387.2,349.3,390.7,342.7,387.2,337.9"/>
	<path class="st1" d="M374.7,310.3H84.2V109.6c0-10.3,8.6-18.6,19.2-18.6h252.1c10.6,0,19.2,8.3,19.2,18.6V310.3z"/>
	<path class="st2" d="M379.7,315.3H79.2V109.6c0-13,10.9-23.6,24.2-23.6h252.1c13.3,0,24.2,10.6,24.2,23.6V315.3z M89.2,305.3h280.5
		V109.6c0-7.5-6.4-13.6-14.2-13.6H103.4c-7.8,0-14.2,6.1-14.2,13.6V305.3z"/>
	<path class="st3" d="M352.8,292.2H106V120.7c0-6.4,5.4-11.7,12.1-11.7h222.6c6.7,0,12.1,5.2,12.1,11.7V292.2z"/>
	<path class="st2" d="M108.1,290.3h242.7V120.7c0-5.3-4.5-9.7-10-9.7H118.1c-5.5,0-10,4.3-10,9.7V290.3z M354.8,294.2H104V120.7
		c0-7.5,6.3-13.6,14.1-13.6h222.6c7.8,0,14.1,6.1,14.1,13.6V294.2z"/>
	<path class="st1" d="M399.8,363.5H59.1c-6.2,0-9.8-7.2-6.2-12.4l29-42.1c1.4-2.1,3.7-3.3,6.2-3.3h282.8c2.5,0,4.8,1.2,6.2,3.3
		l29,42.1C409.5,356.3,406,363.5,399.8,363.5"/>
	<path class="st2" d="M399.8,368.5H59.1c-4.6,0-8.9-2.6-11.1-6.8c-2.3-4.3-2-9.5,0.8-13.5l29-42.1c2.4-3.4,6.2-5.5,10.3-5.5h282.8
		c4.1,0,7.9,2,10.3,5.5l29,42.1c2.8,4,3.1,9.2,0.8,13.5C408.7,365.9,404.4,368.5,399.8,368.5z M88,310.6c-0.8,0-1.6,0.4-2.1,1.1
		l-29,42.1c-1,1.4-0.4,2.8-0.2,3.2c0.3,0.5,0.9,1.4,2.2,1.4h340.7c1.3,0,2-0.9,2.2-1.4c0.2-0.4,0.8-1.8-0.2-3.2l-29-42.1
		c-0.5-0.7-1.3-1.1-2.1-1.1H88z"/>
	<path class="st0" d="M366.7,318.8l19.3,27.1c1,1.4,0,3.4-1.9,3.4H76.7c-1.8,0-2.9-2-1.9-3.4l19.3-27.1c0.4-0.6,1.1-0.9,1.9-0.9
		h268.9C365.6,317.8,366.3,318.2,366.7,318.8"/>
	<path class="st3" d="M114,331.6H95c-1,0-1.6-1-1.1-1.8l4.6-7.4c0.2-0.4,0.6-0.6,1.1-0.6H114c0.7,0,1.2,0.5,1.2,1.2v7.4
		C115.2,331.1,114.7,331.6,114,331.6"/>
	<path class="st3" d="M311.7,345.4H145.1c-1.1,0-1.6-1.3-0.7-2l7.3-5.6c0.2-0.2,0.5-0.2,0.7-0.2h152.1c0.3,0,0.5,0.1,0.7,0.2
		l7.3,5.6C313.3,344.1,312.8,345.4,311.7,345.4"/>
	<path class="st3" d="M372.5,334l6.8,9.9c0.4,0.6,0,1.5-0.8,1.5h-19.9c-0.4,0-0.8-0.3-0.9-0.7l-5.5-9.9c-0.2-0.6,0.3-1.3,0.9-1.3
		h18.5C372,333.6,372.3,333.7,372.5,334"/>
	<path class="st4" d="M247.4,167.1H235l15.3-27.9h-16.4c-0.2-0.7-0.3-1.5-0.4-2.2c-0.1-0.8-0.1-1.6-0.1-2.6c0-1.5,0.5-2.7,1.6-3.5
		c1.1-0.9,2.8-1.3,5-1.3h19.7c1.7,0,2.8,0.3,3.3,0.8c0.5,0.5,0.7,1.4,0.7,2.7v3.5L247.4,167.1z"/>
	<path class="st4" d="M268.1,167.1v-7.5c0.8-0.6,1.6-1.2,2.6-2c0.9-0.8,1.9-1.6,2.9-2.5c1-0.9,2-1.8,3-2.8c1-1,2-1.9,2.9-2.9
		c1.3-1.4,2.4-2.6,3.1-3.8c0.7-1.2,1.1-2.5,1.1-3.8c0-1.5-0.5-2.5-1.4-3.1c-0.9-0.6-1.9-0.8-3-0.8c-1.6,0-3.1,0.4-4.5,1.1
		c-1.5,0.7-2.8,1.6-4,2.5c-1.1-1.2-1.9-2.3-2.6-3.3c-0.7-1-1.1-1.9-1.1-2.7c0-0.6,0.2-1.1,0.5-1.6c0.3-0.5,0.8-0.9,1.4-1.3
		c0.5-0.4,1.2-0.8,2-1.2c0.8-0.4,1.7-0.8,2.7-1.1c1-0.3,2.2-0.6,3.5-0.9c1.3-0.2,2.7-0.3,4.3-0.3c1.9,0,3.7,0.2,5.3,0.6
		c1.7,0.4,3.2,1,4.4,2c1.3,0.9,2.3,2.1,3,3.5c0.7,1.5,1.1,3.2,1.1,5.3c0,1.4-0.2,2.7-0.6,3.9c-0.4,1.3-0.9,2.5-1.6,3.7
		c-0.7,1.2-1.5,2.3-2.4,3.4c-0.9,1.1-1.9,2.1-2.9,3.1c-0.7,0.7-1.4,1.4-2.1,2c-0.7,0.7-1.4,1.3-2.2,1.9h6.8c2,0,3.6,0.4,4.7,1.2
		c1.1,0.8,1.6,2.2,1.6,4c0,0.5,0,1.1,0,1.6c0,0.5-0.1,1.1-0.1,1.8H268.1z"/>
	<path class="st4" d="M317,151.5v-10h-0.4l-6.9,10H317z M301.7,159v-6.9l12.5-18.3c0.5-0.7,0.9-1.3,1.4-1.8c0.5-0.5,1.1-1,1.8-1.4
		c0.7-0.4,1.5-0.7,2.3-0.9c0.9-0.2,1.9-0.3,3.2-0.3c1.1,0,2.2,0.1,3.3,0.4c1,0.3,1.8,0.6,2.2,0.9v21.1h1.7c1.3,0,2.1,0.2,2.6,0.6
		c0.5,0.4,0.7,1.1,0.7,2c0,0.5,0,1.1-0.1,1.8c0,0.6-0.2,1.6-0.4,2.8h-4.6v8.1H317V159H301.7z"/>
	<path class="st4" d="M292.7,218.9c-1.1,1.1-2.5,1.6-4,1.6c-1.4,0-2.9-0.5-4-1.6c-2.2-2.1-2.2-5.5,0-7.6c1.1-1.1,2.5-1.6,4-1.6
		c1.4,0,2.9,0.5,4,1.6C294.9,213.3,294.9,216.8,292.7,218.9 M316.1,187.1l-32.8,16.3c-1.7,0.7-3.3,1.8-4.6,3.3
		c-4.4,4.9-4.2,12.4,0.5,17c2.6,2.6,6,3.9,9.5,3.9c3.4,0,6.7-1.2,9.3-3.7c1.2-1.1,2.1-2.4,2.7-3.8l16.9-31.7
		C318,187.6,317.1,186.7,316.1,187.1"/>
	<path class="st0" d="M323.8,219c0-6-1.6-11.9-4.7-17c-1.2-2-0.5-4.6,1.6-5.7c2.1-1.2,4.7-0.5,5.9,1.5c3.8,6.4,5.9,13.7,5.9,21.2
		c0,2.3-1.9,4.2-4.3,4.2C325.8,223.2,323.8,221.4,323.8,219"/>
	<path class="st4" d="M245,219c0-23.3,19.6-42.2,43.7-42.2c5.6,0,11.1,1,16.2,3c2.2,0.9,3.3,3.3,2.4,5.4c-0.9,2.1-3.4,3.2-5.6,2.3
		c-4.1-1.6-8.5-2.4-13-2.4c-19.3,0-35.1,15.2-35.1,33.9c0,2.3-1.9,4.2-4.3,4.2C247,223.2,245,221.4,245,219"/>
	<path class="st5" d="M158,264.7c21.4,0,38.7-16.8,38.7-37.4s-17.3-37.4-38.7-37.4s-38.7,16.8-38.7,37.4S136.6,264.7,158,264.7"/>
	<path class="st6" d="M175.2,222.6c2.4,0,4.4-1.9,4.4-4.3s-2-4.3-4.4-4.3c-2.4,0-4.4,1.9-4.4,4.3S172.7,222.6,175.2,222.6"/>
	<path class="st6" d="M148.7,222.6c2.4,0,4.4-1.9,4.4-4.3s-2-4.3-4.4-4.3c-2.4,0-4.4,1.9-4.4,4.3S146.3,222.6,148.7,222.6"/>
	<path class="st6" d="M162,233.5c-4.5,0-8.1-3.1-8.1-6.8c0-0.9,0.8-1.7,1.8-1.7c1,0,1.8,0.8,1.8,1.7c0,1.9,2.1,3.4,4.6,3.4
		c2.6,0,4.6-1.5,4.6-3.4c0-0.9,0.8-1.7,1.8-1.7c1,0,1.8,0.8,1.8,1.7C170.1,230.4,166.4,233.5,162,233.5"/>
	<path class="st2" d="M164.2,193.8c-20.2,0-36.7,15.9-36.7,35.4c0,19.5,16.5,35.4,36.7,35.4c20.2,0,36.7-15.9,36.7-35.4
		C200.9,209.7,184.4,193.8,164.2,193.8 M164.2,268.6c-22.5,0-40.8-17.7-40.8-39.4c0-21.7,18.3-39.4,40.8-39.4
		c22.5,0,40.8,17.7,40.8,39.4C204.9,250.9,186.6,268.6,164.2,268.6"/>
	<path class="st7" d="M201.2,174.1H125c-2,0-3.7-1.6-3.7-3.6v-38.2c0-2,1.7-3.6,3.7-3.6h76.2c2,0,3.7,1.6,3.7,3.6v38.2
		C204.9,172.5,203.3,174.1,201.2,174.1"/>
	<path class="st7" d="M335.3,256.8H217.4c-2.3,0-4.2-1.8-4.2-4.1v-11.5c0-2.3,1.9-4.1,4.2-4.1h117.9c2.3,0,4.2,1.8,4.2,4.1v11.5
		C339.5,254.9,337.6,256.8,335.3,256.8"/>
	<path class="st7" d="M327.5,267.6H208.9c-2.2,0-3.9,1.7-3.9,3.8v5.3c0,2.1,1.8,3.8,3.9,3.8h118.6c2.2,0,3.9-1.7,3.9-3.8v-5.3
		C331.4,269.3,329.6,267.6,327.5,267.6"/>
</g>
</svg>
