<?xml version="1.0" encoding="utf-8"?>
<!-- Generator: Adobe Illustrator 22.1.0, SVG Export Plug-In . SVG Version: 6.00 Build 0)  -->
<svg version="1.1" id="Layer_1" xmlns="http://www.w3.org/2000/svg" xmlns:xlink="http://www.w3.org/1999/xlink" x="0px" y="0px"
	 viewBox="0 0 150 150" style="enable-background:new 0 0 150 150;" xml:space="preserve">
<style type="text/css">
	.st0{fill:#FFFFFF;}
	.st1{fill:#F0CCBA;}
	.st2{fill:#141414;}
	.st3{fill:#707070;}
	.st4{fill:#404040;}
	.st5{fill:#BABABA;}
	.st6{fill:#637887;}
	.st7{fill:#C44F1A;}
</style>
<title>sign-lease</title>
<g>
	<rect class="st0" width="150" height="150"/>
	<path class="st1" d="M111.1,112.2V22.6c0-1.4-1.2-2.6-2.6-2.6c0,0,0,0,0,0H20.3c-1.4,0-2.6,1.1-2.6,2.6v105.8
		c0,1.4,1.2,2.6,2.6,2.6c0,0,0,0,0,0h71.4L111.1,112.2z"/>
	<path class="st0" d="M115.8,117.3V29.9c0-1.4-1.2-2.5-2.6-2.5c0,0,0,0,0,0h-86c-1.4,0-2.6,1.1-2.6,2.5c0,0,0,0,0,0v103.1
		c0,1.4,1.2,2.5,2.6,2.5c0,0,0,0,0,0h69.7L115.8,117.3z"/>
	<path class="st2" d="M97.5,137.1H27.2c-2.3,0-4.1-1.8-4.1-4.1V29.9c0-2.3,1.9-4.1,4.1-4.1h86.1c2.3,0,4.1,1.8,4.2,4.1v88
		L97.5,137.1z M27.2,29c-0.5,0-1,0.4-1,0.9v103.1c0,0.5,0.5,0.9,1,0.9h69.1l18-17.4V29.9c0-0.5-0.5-0.9-1-0.9H27.2z"/>
	<path class="st3" d="M103.7,112.5H34.2c-0.3,0-0.6,0.2-0.6,0.6c0,0,0,0,0,0v4.2c0,0.3,0.3,0.6,0.6,0.6h69.5c0.3,0,0.6-0.2,0.6-0.6
		c0,0,0,0,0,0V113C104.3,112.7,104,112.4,103.7,112.5C103.7,112.4,103.7,112.4,103.7,112.5"/>
	<path class="st4" d="M104.3,110.3h-69c-0.4,0-0.8-0.3-0.8-0.8c0,0,0,0,0,0v-4.2c0-0.4,0.4-0.8,0.8-0.8h69c0.4,0,0.8,0.3,0.8,0.8
		v4.2C105.1,110,104.8,110.4,104.3,110.3C104.3,110.3,104.3,110.3,104.3,110.3"/>
	<path class="st5" d="M103.3,120.3H34.2c-0.3,0-0.6,0.2-0.6,0.6c0,0,0,0,0,0v4.6c0,0.3,0.3,0.6,0.6,0.6c0,0,0,0,0,0h69.1
		c0.3,0,0.6-0.2,0.6-0.6c0,0,0,0,0,0v-4.6C103.8,120.6,103.6,120.3,103.3,120.3C103.3,120.3,103.3,120.3,103.3,120.3"/>
	<polyline class="st0" points="115.3,116.1 96.6,116.1 96.6,134.3 	"/>
	<polygon class="st2" points="97.2,134.3 95.1,134.3 95.1,114.6 115.3,114.6 115.3,116.7 97.2,116.7 	"/>
	<path class="st6" d="M68.7,35.4L38.2,53.8c-0.2,0.2-0.3,0.5-0.1,0.8c0.1,0.1,0.2,0.2,0.4,0.2h60.8c0.3,0,0.5-0.3,0.5-0.6
		c0-0.2-0.1-0.3-0.2-0.4L69.3,35.4C69.1,35.3,68.8,35.3,68.7,35.4 M43.5,59.6l1.5,3c0,0.1,0.1,0.2,0.1,0.3v25.6
		c0,0.3,0.3,0.6,0.6,0.6c0,0,0,0,0,0h4.1c0.3,0,0.6-0.2,0.6-0.6c0,0,0,0,0,0V62.8c0-0.1,0-0.2,0.1-0.3l1.5-3c0.1-0.3,0-0.6-0.3-0.8
		c-0.1,0-0.2-0.1-0.3-0.1H44c-0.3,0-0.6,0.2-0.6,0.6C43.4,59.4,43.4,59.5,43.5,59.6 M38.5,93.3l-1.7,4c-0.1,0.3,0.1,0.6,0.4,0.7
		c0.1,0,0.1,0,0.2,0h63.4c0.3,0,0.6-0.3,0.6-0.6c0,0,0-0.1,0-0.1l-1.7-4c-0.1-0.3-0.3-0.4-0.6-0.4H39C38.7,92.9,38.5,93,38.5,93.3"
		/>
	<path class="st6" d="M57.6,59.6l1.5,3c0,0.1,0.1,0.2,0.1,0.3v25.6c0,0.3,0.3,0.6,0.6,0.6c0,0,0,0,0,0h4.1c0.3,0,0.6-0.2,0.6-0.6
		c0,0,0,0,0,0V62.8c0-0.1,0-0.2,0.1-0.3l1.6-3c0.1-0.3,0-0.6-0.3-0.8c-0.1,0-0.2-0.1-0.3-0.1h-7.5c-0.3,0-0.6,0.2-0.6,0.5
		C57.5,59.4,57.6,59.5,57.6,59.6"/>
	<path class="st6" d="M71.7,59.6l1.6,3c0,0.1,0.1,0.2,0.1,0.3v25.6c0,0.3,0.3,0.6,0.6,0.6c0,0,0,0,0,0H78c0.3,0,0.6-0.2,0.6-0.5
		c0,0,0,0,0,0V62.8c0-0.1,0-0.2,0.1-0.3l1.5-3c0.1-0.3,0-0.6-0.3-0.8c-0.1,0-0.2-0.1-0.3-0.1h-7.4c-0.3,0-0.6,0.2-0.6,0.5
		C71.7,59.4,71.7,59.5,71.7,59.6"/>
	<path class="st6" d="M85.8,59.6l1.6,3c0,0.1,0.1,0.2,0.1,0.3v25.6c0,0.3,0.2,0.6,0.5,0.6c0,0,0,0,0,0h4.1c0.3,0,0.6-0.2,0.6-0.6
		c0,0,0,0,0,0V62.8c0-0.1,0-0.2,0.1-0.3l1.5-3c0.1-0.3,0-0.6-0.3-0.8c-0.1,0-0.2-0.1-0.3-0.1h-7.4c-0.3,0-0.6,0.2-0.6,0.5
		C85.8,59.4,85.8,59.5,85.8,59.6"/>
	<path class="st7" d="M80.6,111.4c0,0,2.1-15,2.2-15.1l48.5-81.2c1.1-1.8,3.5-2.5,5.4-1.4l3.5,2c1.8,1,2.5,3.3,1.5,5.1
		c0,0-0.1,0.1-0.1,0.1l-48.5,81.1C93,102.2,80.6,111.4,80.6,111.4"/>
	<polygon class="st0" points="129.9,44.1 119.6,38.3 84.6,96.8 94.9,102.6 	"/>
	<path class="st2" d="M142.8,21l-11.9,19.9l-8.8-5L133.9,16c0.9-1.4,2.7-1.9,4.2-1.1l3.5,2c1.4,0.8,2,2.5,1.2,4
		C142.8,20.9,142.8,21,142.8,21 M85.8,96.6l33.3-55.7l8.8,5l-33.3,55.6L85.8,96.6z M85.3,98.2l8.1,4.5c-1.9,1.4-6.2,4.6-9.8,7.3
		C84.2,105.7,85,100.5,85.3,98.2 M121.5,69l19.2-32.1c1.1-1.9,1-3.8-0.3-4.5l-1.8-1l5.7-9.5c1.3-2.2,0.6-5-1.6-6.3
		c0,0-0.1-0.1-0.1-0.1l-3.5-2c-2.3-1.3-5.2-0.5-6.5,1.7L84,96.3v0.1l0,0c-0.1,0.1-0.1,0.3-0.1,0.5c-0.2,1.1-0.7,4.3-2.1,14.7l-1.2,2
		c-0.2,0.4-0.1,0.9,0.3,1.1c0,0,0,0,0,0c0.4,0.2,0.9,0.1,1.2-0.3l1.2-2c8.6-6.4,11.2-8.4,12.1-9c0.2-0.1,0.3-0.2,0.4-0.3l0,0V103
		l41.5-69.5l1.6,0.9c0,0.4-0.2,0.9-0.4,1.2l-19.3,32c-0.3,0.6-0.1,1.3,0.4,1.7c0,0,0,0,0,0C120.3,69.7,121.1,69.5,121.5,69"/>
</g>
</svg>
