<?xml version="1.0" encoding="utf-8"?>
<!-- Generator: Adobe Illustrator 22.1.0, SVG Export Plug-In . SVG Version: 6.00 Build 0)  -->
<svg version="1.1" id="Layer_1" xmlns="http://www.w3.org/2000/svg" xmlns:xlink="http://www.w3.org/1999/xlink" x="0px" y="0px"
	 viewBox="0 0 150 150" style="enable-background:new 0 0 150 150;" xml:space="preserve">
<style type="text/css">
	.st0{fill:#FFFFFF;}
	.st1{fill:#FAF0EB;}
	.st2{fill:#F0CCBA;}
	.st3{fill:#141414;}
	.st4{fill:#DB5C26;}
	.st5{fill:#241F21;}
	.st6{fill:#D1D6DB;}
</style>
<rect y="0" class="st0" width="150" height="150"/>
<title>application</title>
<g>
	<path class="st1" d="M117.7,9.5H21.3c-1.6,0-2.9,1.2-2.9,2.8v114.5c0,1.6,1.3,2.8,2.9,2.8h1.1V16.3c0-1.6,1.3-2.8,2.9-2.8h95.2
		v-1.3C120.5,10.7,119.3,9.4,117.7,9.5"/>
	<path class="st2" d="M124.6,113.2V16.3c0-1.6-1.3-2.8-2.9-2.8H25.4c-1.6,0-2.9,1.2-2.9,2.8v114.5c0,1.6,1.3,2.8,2.9,2.8h78
		L124.6,113.2z"/>
	<path class="st0" d="M129.7,118.9V24.6c0-1.5-1.3-2.7-2.8-2.7c0,0,0,0,0,0H33c-1.5,0-2.8,1.2-2.8,2.7c0,0,0,0,0,0V136
		c0,1.5,1.3,2.7,2.8,2.7c0,0,0,0,0,0h76.1L129.7,118.9z"/>
	<path class="st3" d="M109.6,135.7v-17.1h17.9L109.6,135.7z M32,136V24.6c0-0.5,0.5-0.9,1-0.9h93.9c0.5,0,1,0.4,1,0.9V116H107v20.8
		H33C32.5,136.9,32.1,136.5,32,136 M126.9,20.1H33c-2.5,0-4.6,2-4.6,4.5c0,0,0,0,0,0V136c0,2.5,2.1,4.6,4.6,4.5h76.8l21.7-20.8V24.6
		C131.5,22.1,129.5,20.1,126.9,20.1C127,20.1,127,20.1,126.9,20.1"/>
	<path class="st4" d="M50.2,62.5c6.8,0,12.3-5.4,12.4-12.2c0-6.8-5.4-12.3-12.2-12.4c-6.8,0-12.3,5.4-12.4,12.2c0,0,0,0.1,0,0.1
		C38,56.9,43.4,62.4,50.2,62.5C50.2,62.5,50.2,62.5,50.2,62.5"/>
	<path class="st5" d="M55.6,48.7c0.8,0,1.4-0.6,1.4-1.4s-0.6-1.4-1.4-1.4s-1.4,0.6-1.4,1.4l0,0C54.2,48,54.8,48.7,55.6,48.7"/>
	<path class="st5" d="M47.3,48.7c0.8,0,1.4-0.6,1.4-1.4s-0.6-1.4-1.4-1.4s-1.4,0.6-1.4,1.4l0,0C45.9,48,46.5,48.6,47.3,48.7"/>
	<path class="st5" d="M51.5,52.2c-1.3,0.1-2.5-0.9-2.6-2.2c0,0,0,0,0,0c0-0.3,0.3-0.5,0.6-0.6c0.3,0,0.6,0.3,0.6,0.6
		c0.2,0.8,1,1.3,1.8,1.1c0.6-0.1,1-0.6,1.1-1.1c0-0.3,0.3-0.5,0.6-0.6c0.3,0,0.5,0.3,0.5,0.6C53.9,51.3,52.7,52.3,51.5,52.2"/>
	<path class="st3" d="M52.2,63.8c-7.1,0-13-5.7-13-12.8S44.9,38,52,38s13,5.7,13,12.8c0,0,0,0.1,0,0.1C65,58,59.3,63.7,52.2,63.8
		 M52.2,39.2c-6.4,0-11.7,5.1-11.7,11.6S45.6,62.4,52,62.5c6.4,0,11.7-5.1,11.7-11.6c0,0,0,0,0-0.1C63.7,44.4,58.6,39.2,52.2,39.2"
		/>
	<polyline class="st0" points="129.4,117.8 108.9,117.8 108.9,137.6 	"/>
	<path class="st6" d="M78.4,113H40.9c-0.3,0-0.5,0.2-0.5,0.5v5.8c0,0.3,0.2,0.5,0.5,0.5h37.5c0.3,0,0.5-0.2,0.5-0.4c0,0,0,0,0-0.1
		v-5.8C78.9,113.2,78.7,113,78.4,113"/>
	<path class="st6" d="M121.7,70.1H40.9c-0.3,0-0.5,0.2-0.5,0.5v5.8c0,0.3,0.2,0.5,0.5,0.5h80.9c0.3,0,0.5-0.2,0.5-0.5c0,0,0,0,0,0
		v-5.8C122.2,70.4,122,70.1,121.7,70.1"/>
	<path class="st6" d="M121.7,80.1H40.9c-0.3,0-0.5,0.2-0.5,0.5v5.8c0,0.3,0.2,0.5,0.5,0.5h80.9c0.3,0,0.5-0.2,0.5-0.5c0,0,0,0,0,0
		v-5.8C122.2,80.3,122,80.1,121.7,80.1"/>
	<path class="st6" d="M121.7,90.3H40.9c-0.3,0-0.5,0.2-0.5,0.5v5.8c0,0.3,0.2,0.5,0.5,0.5h80.9c0.3,0,0.5-0.2,0.5-0.5c0,0,0,0,0,0
		v-5.8C122.2,90.5,122,90.3,121.7,90.3"/>
	<path class="st6" d="M121.7,101.4H40.9c-0.3,0-0.5,0.2-0.5,0.5v5.8c0,0.3,0.2,0.5,0.5,0.5h80.9c0.3,0,0.5-0.2,0.5-0.5c0,0,0,0,0,0
		V102C122.2,101.7,122,101.5,121.7,101.4"/>
	<path class="st6" d="M121.7,38.4H69.3c-0.3,0-0.5,0.2-0.5,0.5v5.8c0,0.3,0.2,0.5,0.5,0.5h52.5c0.3,0,0.5-0.2,0.5-0.5c0,0,0,0,0,0
		v-5.8C122.2,38.6,122,38.4,121.7,38.4"/>
	<path class="st6" d="M121.7,48.3H69.3c-0.3,0-0.5,0.2-0.5,0.5v5.8c0,0.3,0.2,0.5,0.5,0.5h52.5c0.3,0,0.5-0.2,0.5-0.5v-5.8
		C122.2,48.6,122,48.3,121.7,48.3"/>
	<path class="st6" d="M121.7,58.3H69.3c-0.3,0-0.5,0.2-0.5,0.5v5.8c0,0.3,0.2,0.5,0.5,0.5h52.5c0.3,0,0.5-0.2,0.5-0.5v-5.8
		C122.2,58.5,122,58.3,121.7,58.3"/>
</g>
</svg>
