<?xml version="1.0" encoding="utf-8"?>
<!-- Generator: Adobe Illustrator 22.1.0, SVG Export Plug-In . SVG Version: 6.00 Build 0)  -->
<svg version="1.1" id="Layer_1" xmlns="http://www.w3.org/2000/svg" xmlns:xlink="http://www.w3.org/1999/xlink" x="0px" y="0px"
	 viewBox="0 0 350 410" style="enable-background:new 0 0 350 410;" xml:space="preserve">
<style type="text/css">
	.st0{fill:#FFFFFF;}
	.st1{fill:#DB5C26;}
	.st2{fill:#BBBBBB;}
</style>
<g>
	<g>
		<path class="st0" d="M2.5,9.1v332.8c0,3.4,2.7,6.1,6.1,6.1H87l52.7,59v-59h201.7c3.4,0,6.1-2.7,6.1-6.1V9.1c0-3.4-2.7-6.1-6.1-6.1
			H8.6C5.2,3,2.5,5.7,2.5,9.1z"/>
		<path class="st1" d="M142.2,413.6l-56.3-63.1H8.6c-4.7,0-8.6-3.9-8.6-8.6V9.1c0-4.7,3.9-8.6,8.6-8.6h332.8c4.7,0,8.6,3.9,8.6,8.6
			v332.8c0,4.7-3.9,8.6-8.6,8.6H142.2V413.6z M8.6,5.5C6.6,5.5,5,7.1,5,9.1v332.8c0,2,1.6,3.6,3.6,3.6h79.5l49,54.9v-54.9h204.2
			c2,0,3.6-1.6,3.6-3.6V9.1c0-2-1.6-3.6-3.6-3.6H8.6z"/>
	</g>
	<g>
		<path class="st2" d="M328.1,323.1c-3.3,4-7.1,7.1-11.2,8.8l-1.3-2.7c3.3-1.9,6-4.2,8.3-6.9c2.3-2.7,3.5-5.6,3.5-8.5
			c0-0.6-0.2-1-0.6-1.3c-0.4-0.2-0.8-0.4-1.3-0.4c-3.1,0.4-4.6,0.6-4.8,0.6c-1.5,0-3.3-0.6-5-1.7s-2.7-3.1-2.7-5.8
			c0-2.3,0.8-4.2,2.3-5.8s3.7-2.3,6.3-2.3c3.3,0,6,1.2,8.1,3.7c2.1,2.5,3.3,5.6,3.3,9.4C333.1,314.8,331.6,319.1,328.1,323.1z"/>
		<path class="st2" d="M301.2,323.3c-3.5,4-7.1,6.9-11,8.8l-1.3-2.7c3.3-1.9,6-4.2,8.3-6.9c2.3-2.7,3.5-5.6,3.5-8.3
			c0-0.6-0.2-1-0.4-1.3c-0.2-0.4-0.8-0.6-1.5-0.6c-2.9,0.4-4.6,0.6-4.8,0.6c-1.7,0-3.5-0.6-5.2-1.9c-1.7-1.2-2.5-3.1-2.5-5.4
			c0-1.9,0.6-3.7,1.9-5.6c1.3-1.7,3.5-2.7,6.7-2.7s6.2,1.3,8.3,3.8c2.1,2.5,3.3,5.6,3.3,8.8C306.2,314.8,304.5,319.3,301.2,323.3z"
			/>
	</g>
	<g>
		<path class="st2" d="M22.6,26.4c3.3-4,7.1-7.1,11.2-8.8l1.3,2.7c-3.3,1.9-6,4.2-8.3,6.9c-2.3,2.7-3.5,5.6-3.5,8.5
			c0,0.6,0.2,1,0.6,1.3c0.4,0.2,0.8,0.4,1.3,0.4c3.1-0.4,4.6-0.6,4.8-0.6c1.5,0,3.3,0.6,5,1.7c1.7,1.2,2.7,3.1,2.7,5.8
			c0,2.3-0.8,4.2-2.3,5.8c-1.5,1.5-3.7,2.3-6.3,2.3c-3.3,0-6-1.2-8.1-3.7c-2.1-2.5-3.3-5.6-3.3-9.4C17.6,34.6,19.1,30.4,22.6,26.4z"
			/>
		<path class="st2" d="M49.5,26.2c3.5-4,7.1-6.9,11-8.8l1.3,2.7c-3.3,1.9-6,4.2-8.3,6.9s-3.5,5.6-3.5,8.3c0,0.6,0.2,1,0.4,1.3
			c0.2,0.4,0.8,0.6,1.5,0.6c2.9-0.4,4.6-0.6,4.8-0.6c1.7,0,3.5,0.6,5.2,1.9c1.7,1.2,2.5,3.1,2.5,5.4c0,1.9-0.6,3.7-1.9,5.6
			c-1.3,1.7-3.5,2.7-6.7,2.7c-3.3,0-6.2-1.3-8.3-3.8c-2.1-2.5-3.3-5.6-3.3-8.8C44.5,34.6,46.2,30.2,49.5,26.2z"/>
	</g>
</g>
</svg>
